<svg xmlns="http://www.w3.org/2000/svg" aria-label="Triple" class="navbar__logo logo" viewBox="0 0 233 102"><path fill="currentcolor" fill-rule="evenodd" d="m73.788 58.162 4.06 5.982a1.035 1.035 0 0 0 1.433.272c.47-.317.597-.957.272-1.43l-4.082-6.016-.049.035-1.634 1.157Zm29.427-20.825v26.225a1.03 1.03 0 0 0 1.032 1.032c.572 0 1.03-.458 1.03-1.032V36.368c0-.152-.032-.296-.091-.425l-1.971 1.394Zm127.816 25.19h-17.102V50.991h12.69c.57 0 1.031-.458 1.031-1.032 0-.564-.461-1.029-1.031-1.029h-12.69V37.395h17.102a1.03 1.03 0 1 0 0-2.058h-18.135c-.569 0-1.03.458-1.03 1.026V63.56c0 .57.461 1.032 1.03 1.032h18.135a1.032 1.032 0 0 0 0-2.065Zm-40.718.002h-15.005V36.364a1.03 1.03 0 0 0-1.034-1.026c-.57 0-1.031.458-1.031 1.026v27.198c0 .57.461 1.032 1.031 1.032h16.039a1.032 1.032 0 0 0 0-2.064ZM143.63 35.338h-12.753c-.571 0-1.032.462-1.032 1.03v27.194c0 .574.461 1.032 1.032 1.032a1.03 1.03 0 0 0 1.031-1.032v-10.5h11.722c4.889 0 8.865-3.975 8.865-8.863 0-4.887-3.976-8.861-8.865-8.861Zm0 15.66h-11.722V37.4h11.722c3.753 0 6.8 3.05 6.8 6.799a6.803 6.803 0 0 1-6.8 6.798Z" class="logo__text" clip-rule="evenodd"/><path fill="currentcolor" fill-rule="evenodd" d="m66.826 63.09-2.215 1.568H54.18v-2.374l3.42-.93V38.49l-3.42-.877v-2.374h15.432c5.935 0 9.032 2.89 9.032 8.051 0 5.678-6.968 7.742-6.968 7.742l3.737 5.979-3.914 2.77-.432.306-4.242-8.28h-3.871v9.548l3.87.929v.806Zm39.216-27.753-4.744 3.357v-.183l-4.072-.795v-2.38h8.816ZM67.29 48.452h-4.129V38.129h3.613c3.75 0 6.194 1.412 6.194 5.161 0 3.752-1.929 5.162-5.678 5.162Zm-55.742-3.954v-9.16l25.41-.001v9.161h-2.602l-1.295-6.106h-6.173v22.922l4.304.975v2.364H17.313v-2.364l4.3-.975V38.392h-6.21l-1.274 6.106h-2.58Z" class="logo__text" clip-rule="evenodd"/><path fill="#FF4F68" fill-rule="evenodd" d="M18.743 97.116 2.36 3.274l106.585 29.688.326.09-33.848 23.953-3.922 2.777-8.593 6.082-44.164 31.252Zm100.255-65.988L2.111.334C.95-.07.127.6.288 1.822l16.87 97.916c.16 1.223 1.125 1.658 2.147.964l55.44-37.487 1.71-1.156 26.762-18.096 2.062-1.395 13.979-9.452c1.022-.69.902-1.583-.26-1.988Z" clip-rule="evenodd"/></svg>
